<?xml version="1.0" encoding="utf-8"?>
<!-- Generator: Adobe Illustrator 25.2.1, SVG Export Plug-In . SVG Version: 6.00 Build 0)  -->
<svg version="1.1" xmlns="http://www.w3.org/2000/svg" xmlns:xlink="http://www.w3.org/1999/xlink" x="0px" y="0px"
	 viewBox="0 0 777.9 336.9" style="enable-background:new 0 0 777.9 336.9;" xml:space="preserve">
<style type="text/css">
	.st0{display:none;}
	.st1{fill:#FFFFFF;stroke:#000000;stroke-miterlimit:10;}
	.st2{fill:#010202;}
	.st3{fill:#30ACBD;}
	.st4{fill:#FDFEFE;}
	.st5{fill:#FFFFFF;}
</style>
<g id="Capa_1" class="st0">
	
		<image style="display:inline;overflow:visible;" width="324" height="350" xlink:href="58C8F021.jpg"  transform="matrix(1 0 0 1 89.5168 -3.6441)">
	</image>
</g>
<g id="Capa_3">
	<rect x="287.3" y="88.8" class="st1" width="474" height="152.1"/>
	<path class="st2" d="M149,326.1c-12.3-7.9-25.1-14.9-37.7-22.2c-30.4-17.5-60.8-35-91.2-52.4c-2.4-1.4-3.1-2.9-3.1-5.6
		c0.1-48.7,0.1-97.5,0-146.2c0-2.7,0.8-4.2,3.2-5.5C62.4,69.9,104.8,45.5,147,21.1c2.8-1.6,4.9-1.7,7.6,0c11.1,7,22.5,13.7,34,20.1
		c22.7,12.6,45,25.9,67.6,38.5c8.4,4.7,16.8,9.7,25.2,14.4c2.1,1.2,3.2,2.4,3.2,5.1c-0.1,49-0.1,98,0,147.1c0,1.9-0.5,3.2-2.2,4.2
		c-26.3,16-53.2,30.9-79.7,46.3c-16.2,9.5-32.5,18.8-48.8,28.2c-0.5,0.3-0.8,0.7-1.3,1.1C151.3,326.1,150.2,326.1,149,326.1z"/>
</g>
<g id="Capa_2">
	<g>
		<path class="st3" d="M151.7,318.8c-12.3-7.9-25.1-14.9-37.7-22.2c-30.4-17.5-60.8-35-91.2-52.4c-2.4-1.4-3.1-2.9-3.1-5.6
			c0.1-48.7,0.1-97.5,0-146.2c0-2.7,0.8-4.2,3.2-5.5c42.4-24.3,84.7-48.7,126.9-73.2c2.8-1.6,4.9-1.7,7.6,0
			c11.1,7,22.5,13.7,34,20.1c22.7,12.6,45,25.9,67.6,38.5c8.4,4.7,16.8,9.7,25.2,14.4c2.1,1.2,3.2,2.4,3.2,5.1
			c-0.1,49-0.1,98,0,147.1c0,1.9-0.5,3.2-2.2,4.2c-26.3,16-53.2,30.9-79.7,46.3c-16.2,9.5-32.5,18.8-48.8,28.2
			c-0.5,0.3-0.8,0.7-1.3,1.1C154.1,318.8,152.9,318.8,151.7,318.8z M36.1,165.5C36,165.5,36,165.5,36.1,165.5
			c0,21.3,0,42.6-0.1,63.9c0,2.9,0.9,4.6,3.4,5.9c6.8,3.7,13.4,7.6,20.1,11.5c30.3,17.4,60.6,34.9,90.8,52.4c2,1.2,3.5,1.7,5.9,0.3
			c37.1-21.5,74.2-42.9,111.4-64.3c2.5-1.4,3.3-3.1,3.3-6c-0.1-42.6,0-85.2,0-127.7c0-2.7-0.7-4.3-3.1-5.6
			C230.6,74.5,193.4,53,156.2,31.5c-2.1-1.2-3.5-1.1-5.5,0.1c-8,4.8-16.1,9.4-24.2,14C97.9,62.1,69.3,78.7,40.6,95.1
			c-3.3,1.9-4.7,3.9-4.7,7.8C36.2,123.8,36.1,144.6,36.1,165.5z"/>
		<path class="st4" d="M36.1,165.5c0-20.8,0.1-41.7-0.1-62.5c0-4,1.3-5.9,4.7-7.8c28.7-16.4,57.3-32.9,85.9-49.4
			c8.1-4.7,16.2-9.2,24.2-14c2-1.2,3.4-1.3,5.5-0.1c37.2,21.5,74.4,42.9,111.7,64.3c2.4,1.4,3.1,3,3.1,5.6
			c-0.1,42.6-0.1,85.2,0,127.7c0,2.9-0.8,4.5-3.3,6c-37.2,21.3-74.3,42.7-111.4,64.3c-2.4,1.4-3.9,0.9-5.9-0.3
			c-30.3-17.5-60.5-34.9-90.8-52.4c-6.7-3.9-13.3-7.8-20.1-11.5c-2.5-1.4-3.4-3.1-3.4-5.9C36.1,208,36,186.7,36.1,165.5
			C36,165.5,36,165.5,36.1,165.5z M130.6,272.5c0-2.7,0-4.5,0-6.2c0-28.8,0.1-57.5-0.1-86.3c0-4.2,1.3-5.1,5.2-5
			c16.6,0.2,33.2,0,49.8,0.2c3.8,0,4.9-1.2,4.6-4.8c-0.3-3.6-0.3-7.4,0-11c0.3-3.6-1.2-4.4-4.5-4.4c-16.4,0.1-32.9-0.1-49.3,0.2
			c-4.2,0.1-5.7-0.7-5.7-5.5c0-21.1,0.5-42.2-0.1-63.3c-0.1-2.7-1.7-6.8,2.6-8.9c6.2-3.1,12.1-6.5,18.2-9.9c2-1.1,3.8-1.3,5.8-0.1
			c8.3,5.1,16.5,10.2,24.8,15.1c3.9,2.3,8.1,7.1,11.6,5.9c3.4-1.1,5.3-6.9,7.9-10.7c0.2-0.2,0.3-0.5,0.5-0.7c1.5-1.8,0.9-2.9-1.1-4
			c-14.6-8.5-29.1-17-43.6-25.6c-2.2-1.3-3.8-1.3-6,0.1c-10.8,6.5-21.7,12.9-32.6,19.2c-2.9,1.6-4,3.4-4,6.9
			c0.1,42,0.1,83.9,0.1,125.9c0,19.5,0,39,0,58.6c0,2-0.4,4.1,1.9,5.4C120.9,266.2,125.2,269.1,130.6,272.5z M83,164.5
			c-0.3,0-0.6,0.1-0.9,0.1c-1.4-4.8-2.9-9.7-4.3-14.5c-4.2-14.5-8.5-29-12.7-43.5c-0.6-1.9-1.5-2.3-3.2-1.2
			c-2.8,1.7-5.5,3.5-8.4,4.8c-3.1,1.4-4.1,3.4-4,6.8c0.1,32.4,0.1,64.9,0.1,97.3c0,11.4,0,11.3,10.2,16.9c3.2,1.7,4.2,1.6,4.2-2.4
			c-0.2-12-0.1-24.1-0.1-36.1c0-11.1,0-22.2,0-33.9c1.8,1.6,1.8,3.3,2.2,4.8c6.6,24.8,13.3,49.5,19.5,74.4
			c1.7,6.9,4.6,11.8,11.3,14.8c3.7,1.7,3.9,0.9,3.9-2.6c-0.1-55.3-0.1-110.7-0.1-166c0-1.2,0.6-2.6-0.9-3.9
			c-4.1,2.4-8.2,4.9-12.5,7.1c-3.1,1.6-4.3,3.6-4.2,7.2C83.1,117.9,83,141.2,83,164.5z M262.9,132.5c0-6.1-0.2-11,0.1-16
			c0.1-2.7-0.9-4.3-3.2-5.6c-13.2-8.2-26.2-16.5-39.4-24.7c-3.3-2.1-6.9-6.6-10-5.4c-3.1,1.2-4.6,6.4-7,9.7
			c-1.7,2.3-1.5,3.7,1.1,5.2c4.9,2.9,9.5,6.2,14.5,9c2.9,1.7,3.9,3.6,3.9,7c-0.1,43.7-0.1,87.4,0,131.2c0,1.7-0.4,3.4,0.6,5.4
			c4.6-2.7,8.8-5.4,13.2-7.5c3.2-1.5,3.9-3.6,3.9-6.9c-0.1-36.8-0.1-73.7-0.1-110.5c0-1.7-0.5-3.4,0.7-5.4
			C248.3,122.6,255.1,127.3,262.9,132.5z"/>
		<path class="st3" d="M130.6,272.5c-5.4-3.4-9.7-6.3-14.2-9c-2.3-1.4-1.9-3.4-1.9-5.4c0-19.5,0-39,0-58.6c0-42,0-83.9-0.1-125.9
			c0-3.4,1.1-5.2,4-6.9c11-6.2,21.8-12.6,32.6-19.2c2.2-1.3,3.8-1.3,6-0.1c14.5,8.6,29,17.2,43.6,25.6c2,1.2,2.6,2.2,1.1,4
			c-0.2,0.2-0.3,0.5-0.5,0.7c-2.6,3.7-4.4,9.5-7.9,10.7c-3.5,1.2-7.8-3.6-11.6-5.9c-8.3-5-16.5-10.1-24.8-15.1
			c-1.9-1.2-3.8-1-5.8,0.1c-6,3.4-12,6.8-18.2,9.9c-4.3,2.1-2.7,6.2-2.6,8.9c0.6,21.1,0.1,42.2,0.1,63.3c0,4.7,1.5,5.5,5.7,5.5
			c16.4-0.2,32.9,0,49.3-0.2c3.4,0,4.8,0.8,4.5,4.4c-0.3,3.6-0.3,7.3,0,11c0.3,3.6-0.8,4.8-4.6,4.8c-16.6-0.2-33.2,0-49.8-0.2
			c-3.9,0-5.2,0.9-5.2,5c0.2,28.8,0.1,57.5,0.1,86.3C130.6,268.1,130.6,269.8,130.6,272.5z"/>
		<path class="st3" d="M83,164.5c0-23.3,0.1-46.7-0.1-70c0-3.6,1.1-5.6,4.2-7.2c4.3-2.1,8.4-4.7,12.5-7.1c1.4,1.3,0.9,2.7,0.9,3.9
			c0,55.3,0,110.7,0.1,166c0,3.5-0.2,4.2-3.9,2.6c-6.7-3-9.6-7.8-11.3-14.8c-6.2-24.9-12.9-49.6-19.5-74.4c-0.4-1.4-0.4-3.1-2.2-4.8
			c0,11.7,0,22.8,0,33.9c0,12-0.1,24.1,0.1,36.1c0.1,3.9-1,4.1-4.2,2.4c-10.1-5.6-10.2-5.5-10.2-16.9c0-32.4,0.1-64.9-0.1-97.3
			c0-3.4,0.9-5.4,4-6.8c2.9-1.3,5.6-3.1,8.4-4.8c1.7-1.1,2.7-0.7,3.2,1.2c4.2,14.5,8.4,29,12.7,43.5c1.4,4.8,2.9,9.7,4.3,14.5
			C82.4,164.6,82.7,164.5,83,164.5z"/>
		<path class="st3" d="M262.9,132.5c-7.7-5.2-14.6-9.8-21.6-14.5c-1.2,2-0.7,3.8-0.7,5.4c0,36.8-0.1,73.7,0.1,110.5
			c0,3.3-0.7,5.4-3.9,6.9c-4.5,2.2-8.6,4.9-13.2,7.5c-1-2-0.6-3.8-0.6-5.4c0-43.7-0.1-87.4,0-131.2c0-3.4-1-5.3-3.9-7
			c-5-2.8-9.6-6.2-14.5-9c-2.6-1.5-2.8-2.9-1.1-5.2c2.4-3.3,3.9-8.5,7-9.7c3.1-1.2,6.6,3.3,10,5.4c13.2,8.2,26.2,16.5,39.4,24.7
			c2.2,1.4,3.3,2.9,3.2,5.6C262.7,121.4,262.9,126.4,262.9,132.5z"/>
		<g>
			<path d="M367.7,169.7l-21.9,67.1h-26.5l-14.1-116c-3.6-0.5-6.3-1.7-8.2-3.7c-1.8-2-2.8-4.6-2.8-7.8c0-3.7,1.2-6.6,3.6-8.9
				c2.4-2.2,6.5-3.3,12.2-3.3l31.5,0.1c5.7,0,9.7,1.1,12.2,3.2c2.4,2.2,3.6,5,3.6,8.5s-1.2,6.4-3.6,8.6s-6.5,3.3-12.2,3.3h-12.3
				l7.8,66l18.6-55h24.5l18.4,55l7.8-66h-12.3c-5.7,0-9.7-1.1-12.2-3.3s-3.6-5.1-3.6-8.6s1.2-6.4,3.6-8.6c2.4-2.2,6.5-3.3,12.2-3.3
				l31.3,0.1c5.7,0,9.7,1.1,12.2,3.2c2.4,2.2,3.6,5,3.6,8.5c0,3-1,5.6-2.9,7.7c-1.9,2.2-4.7,3.5-8.3,4.1l-13.6,116h-26L367.7,169.7z
				"/>
		</g>
	</g>
	<g>
		<path d="M467.1,168.2v-1.5c-1.6,0.8-3.3,1.5-5.3,1.9c-1.9,0.4-3.7,0.6-5.2,0.6c-3.4,0-6.2-0.9-8.3-2.7c-2.1-1.8-3.2-3.8-3.2-6
			c0-2.7,1.4-5.1,4.1-7.4c2.7-2.3,6.5-3.4,11.3-3.4c1.9,0,4.1,0.2,6.7,0.6v-1.5c0-1-0.4-1.7-1.2-2.3c-0.8-0.6-2.4-0.9-4.7-0.9
			c-1.9,0-4.3,0.4-7.3,1.1c-1.1,0.3-2,0.4-2.6,0.4c-0.8,0-1.6-0.3-2.2-0.9c-0.6-0.6-0.9-1.4-0.9-2.3c0-0.5,0.1-1,0.3-1.4
			c0.2-0.4,0.5-0.7,0.9-0.9c0.4-0.2,1.1-0.5,2.3-0.9c1.6-0.4,3.2-0.8,4.8-1c1.6-0.3,3.1-0.4,4.4-0.4c3.9,0,7,0.9,9.2,2.6
			c2.2,1.7,3.3,4,3.3,7v13.1h1.1c1.5,0,2.6,0.3,3.3,0.9c0.7,0.6,1,1.4,1,2.3c0,0.9-0.3,1.7-1,2.3s-1.7,0.9-3.3,0.9H467.1z
			 M467.1,156.8c-2.5-0.5-4.9-0.7-7-0.7c-2.6,0-4.8,0.6-6.7,1.9c-1.2,0.8-1.7,1.6-1.7,2.5c0,0.6,0.3,1.1,0.8,1.5c1,0.7,2.5,1,4.2,1
			c1.5,0,3.3-0.3,5.2-0.9c1.9-0.6,3.7-1.4,5.2-2.5V156.8z"/>
		<path d="M498.2,140.1v4c2.7-1.9,4.8-3.2,6.3-3.8c1.5-0.6,3-1,4.3-1c2.1,0,4.1,0.8,6,2.3c1.3,1,2,2.1,2,3.2c0,0.9-0.3,1.7-0.9,2.3
			c-0.6,0.6-1.4,0.9-2.3,0.9c-0.8,0-1.6-0.4-2.5-1.2c-0.9-0.8-1.6-1.2-2.3-1.2c-0.9,0-2.2,0.6-4,1.7s-4,2.8-6.6,5v9.6h9.1
			c1.5,0,2.6,0.3,3.3,0.9c0.7,0.6,1,1.4,1,2.3c0,0.9-0.3,1.7-1,2.3s-1.7,0.9-3.3,0.9h-19.2c-1.5,0-2.6-0.3-3.3-0.9s-1-1.4-1-2.3
			c0-0.9,0.3-1.7,1-2.3c0.7-0.6,1.7-0.9,3.3-0.9h3.8v-15.4h-2.3c-1.5,0-2.6-0.3-3.3-0.9c-0.7-0.6-1-1.4-1-2.3c0-0.9,0.3-1.7,1-2.3
			s1.7-0.9,3.3-0.9H498.2z"/>
		<path d="M553.6,157.4h-26.1c0.7,1.7,1.8,3,3.5,4c1.7,1,4,1.5,6.8,1.5c2.4,0,5.5-0.5,9.4-1.5c1.6-0.4,2.7-0.6,3.3-0.6
			c0.8,0,1.6,0.3,2.1,0.9c0.6,0.6,0.9,1.4,0.9,2.3c0,0.8-0.3,1.5-0.9,2.1c-0.8,0.8-2.8,1.5-6,2.2c-3.2,0.7-6.3,1-9.2,1
			c-5.1,0-9.2-1.4-12.2-4.3c-3-2.9-4.6-6.4-4.6-10.6c0-4.5,1.6-8.1,4.9-10.9c3.3-2.8,7.1-4.2,11.4-4.2c2.6,0,5,0.5,7.1,1.4
			c2.2,0.9,3.8,1.9,4.8,2.9c1.5,1.5,2.7,3.4,3.7,5.7c0.7,1.6,1,3.4,1,5.5V157.4z M546.6,151c-1-1.8-2.2-3.2-3.8-4.1
			c-1.6-0.9-3.4-1.3-5.6-1.3c-2.2,0-4,0.5-5.6,1.3c-1.6,0.9-2.9,2.3-3.8,4.1H546.6z"/>
		<path d="M569.2,128v13.6c1.3-0.8,2.7-1.4,4-1.8c1.4-0.4,2.7-0.6,4.1-0.6c2.2,0,4.1,0.4,5.9,1.1s3.1,1.9,4.3,3.5
			c1.1,1.6,1.7,3.6,1.7,6.1v11.9c1.6,0,2.7,0.2,3.2,0.5c1,0.6,1.5,1.5,1.5,2.7c0,0.9-0.3,1.7-1,2.3s-1.7,0.9-3.3,0.9h-7.3
			c-1.5,0-2.6-0.3-3.2-0.9s-1-1.4-1-2.3c0-1.2,0.5-2.1,1.5-2.7c0.5-0.3,1.6-0.5,3.2-0.5v-11.5c0-1.6-0.4-2.8-1.1-3.4
			c-1-0.9-2.4-1.3-4.3-1.3c-1.4,0-2.7,0.3-3.7,0.8c-1.1,0.5-2.5,1.7-4.4,3.6v11.9c1.6,0,2.7,0.2,3.2,0.5c1,0.6,1.5,1.5,1.5,2.7
			c0,0.9-0.3,1.7-1,2.3s-1.7,0.9-3.3,0.9h-7.2c-1.5,0-2.6-0.3-3.3-0.9s-1-1.4-1-2.3c0-1.2,0.5-2.1,1.5-2.7c0.5-0.3,1.6-0.5,3.2-0.5
			v-27.5h-1.1c-1.5,0-2.6-0.3-3.3-0.9s-1-1.4-1-2.3c0-0.9,0.3-1.7,1-2.3c0.7-0.6,1.7-0.9,3.3-0.9H569.2z"/>
		<path d="M630.4,154.7c0,2.4-0.7,4.8-2,7.1c-1.4,2.3-3.4,4.1-6,5.5c-2.7,1.4-5.5,2-8.4,2c-2.9,0-5.7-0.7-8.3-2
			c-2.6-1.3-4.7-3.1-6-5.4s-2.1-4.7-2.1-7.2c0-2.5,0.7-5,2.1-7.5s3.4-4.4,6.1-5.8s5.4-2.1,8.3-2.1c2.9,0,5.7,0.7,8.4,2.2
			c2.7,1.4,4.7,3.4,6.1,5.8C629.7,149.6,630.4,152.1,630.4,154.7z M624,154.7c0-2-0.7-3.9-2.2-5.6c-2-2.3-4.6-3.5-7.9-3.5
			c-2.9,0-5.3,0.9-7.2,2.8c-1.9,1.8-2.9,4-2.9,6.4c0,2,1,3.8,2.9,5.6c1.9,1.7,4.3,2.6,7.2,2.6c2.9,0,5.3-0.9,7.2-2.6
			C623.1,158.6,624,156.7,624,154.7z"/>
		<path d="M665.5,140.1v21.8c1.3,0,2.3,0.3,3,0.9c0.6,0.6,1,1.4,1,2.3s-0.3,1.7-1,2.3s-1.7,0.9-3.3,0.9h-6v-1.5
			c-1.8,0.8-3.6,1.4-5.2,1.9c-1.7,0.4-3.2,0.6-4.7,0.6c-2.1,0-3.9-0.4-5.4-1.3c-1.5-0.9-2.7-2.1-3.6-3.6c-0.6-1.1-1-2.5-1-4.2v-13.7
			h-1.1c-1.5,0-2.6-0.3-3.3-0.9c-0.7-0.6-1-1.4-1-2.3c0-0.9,0.3-1.7,1-2.3s1.7-0.9,3.3-0.9h7.4V159c0,1.3,0.3,2.3,1,3
			c0.7,0.6,1.6,0.9,3,0.9c1.3,0,2.7-0.3,4.1-0.8c1.5-0.5,3.3-1.4,5.5-2.7v-13h-2.3c-1.5,0-2.6-0.3-3.3-0.9c-0.7-0.6-1-1.4-1-2.3
			c0-0.9,0.3-1.7,1-2.3s1.7-0.9,3.3-0.9H665.5z"/>
		<path d="M697,147.5c-1-0.6-2.1-1.1-3.3-1.4c-1.1-0.3-2.3-0.5-3.6-0.5c-2.5,0-4.4,0.4-5.9,1.2c-0.6,0.4-1,0.7-1,1.1
			c0,0.5,0.4,0.9,1.3,1.4c0.7,0.3,2.1,0.7,4.4,1c4.2,0.6,7.2,1.2,8.8,1.7c2.2,0.8,3.8,1.9,5,3.4c1.2,1.5,1.8,3.1,1.8,4.8
			c0,2.3-1,4.2-3,5.7c-2.9,2.2-6.6,3.3-11.2,3.3c-1.8,0-3.5-0.2-5.1-0.5c-1.6-0.3-3-0.8-4.3-1.4c-0.3,0.3-0.6,0.5-1,0.6
			c-0.4,0.1-0.7,0.2-1.1,0.2c-1,0-1.8-0.3-2.4-1s-0.9-1.7-0.9-3.3v-2.1c0-1.5,0.3-2.6,0.9-3.3s1.4-1,2.3-1c0.8,0,1.4,0.2,1.9,0.6
			c0.5,0.4,0.9,1.2,1.2,2.2c1,0.8,2.1,1.5,3.5,1.9c1.4,0.4,2.9,0.6,4.7,0.6c2.9,0,5.2-0.5,6.8-1.4c0.8-0.5,1.1-0.9,1.1-1.4
			c0-0.8-0.5-1.5-1.6-2c-1.1-0.5-3.4-1-6.8-1.4c-5.1-0.5-8.5-1.6-10.2-3.1c-1.7-1.5-2.6-3.4-2.6-5.6c0-2.3,1-4.2,2.9-5.7
			c2.6-2.1,6-3.1,10.2-3.1c1.5,0,2.9,0.1,4.2,0.4c1.4,0.3,2.7,0.7,3.9,1.3c0.4-0.3,0.8-0.5,1.1-0.7c0.3-0.1,0.7-0.2,0.9-0.2
			c0.9,0,1.6,0.3,2.2,1c0.6,0.7,0.9,1.7,0.9,3.3v1.6c0,1.4-0.2,2.3-0.5,2.8c-0.7,1-1.6,1.4-2.7,1.4c-0.8,0-1.4-0.2-2-0.7
			C697.5,148.9,697.1,148.3,697,147.5z"/>
		<path d="M744.2,157.4h-26.1c0.7,1.7,1.8,3,3.5,4c1.7,1,4,1.5,6.8,1.5c2.4,0,5.5-0.5,9.4-1.5c1.6-0.4,2.7-0.6,3.3-0.6
			c0.8,0,1.6,0.3,2.1,0.9c0.6,0.6,0.9,1.4,0.9,2.3c0,0.8-0.3,1.5-0.9,2.1c-0.8,0.8-2.8,1.5-6,2.2c-3.2,0.7-6.3,1-9.2,1
			c-5.1,0-9.2-1.4-12.2-4.3c-3-2.9-4.6-6.4-4.6-10.6c0-4.5,1.6-8.1,4.9-10.9c3.3-2.8,7.1-4.2,11.4-4.2c2.6,0,5,0.5,7.1,1.4
			c2.2,0.9,3.8,1.9,4.8,2.9c1.5,1.5,2.7,3.4,3.7,5.7c0.7,1.6,1,3.4,1,5.5V157.4z M737.1,151c-1-1.8-2.2-3.2-3.8-4.1
			c-1.6-0.9-3.4-1.3-5.6-1.3c-2.2,0-4,0.5-5.6,1.3c-1.6,0.9-2.9,2.3-3.8,4.1H737.1z"/>
	</g>
	<g>
		<path d="M480.7,203.2c0,2.4-0.7,4.8-2,7.1c-1.4,2.3-3.4,4.1-6,5.5c-2.7,1.4-5.5,2-8.4,2c-2.9,0-5.7-0.7-8.3-2
			c-2.6-1.3-4.7-3.1-6-5.4s-2.1-4.7-2.1-7.2c0-2.5,0.7-5,2.1-7.5s3.4-4.4,6.1-5.8s5.4-2.1,8.3-2.1c2.9,0,5.7,0.7,8.4,2.2
			c2.7,1.4,4.7,3.4,6.1,5.8C480,198.1,480.7,200.6,480.7,203.2z M474.3,203.2c0-2-0.7-3.9-2.2-5.6c-2-2.3-4.6-3.5-7.9-3.5
			c-2.9,0-5.3,0.9-7.2,2.8c-1.9,1.8-2.9,4-2.9,6.4c0,2,1,3.8,2.9,5.6c1.9,1.7,4.3,2.6,7.2,2.6c2.9,0,5.3-0.9,7.2-2.6
			C473.3,207.1,474.3,205.2,474.3,203.2z"/>
		<path d="M501,188.6v4c2.7-1.9,4.8-3.2,6.3-3.8c1.5-0.6,3-1,4.3-1c2.1,0,4.1,0.8,6,2.3c1.3,1,2,2.1,2,3.2c0,0.9-0.3,1.7-0.9,2.3
			c-0.6,0.6-1.4,0.9-2.3,0.9c-0.8,0-1.6-0.4-2.5-1.2c-0.9-0.8-1.6-1.2-2.3-1.2c-0.9,0-2.2,0.6-4,1.7s-4,2.8-6.6,5v9.6h9.1
			c1.5,0,2.6,0.3,3.3,0.9c0.7,0.6,1,1.4,1,2.3c0,0.9-0.3,1.7-1,2.3s-1.7,0.9-3.3,0.9h-19.2c-1.5,0-2.6-0.3-3.3-0.9s-1-1.4-1-2.3
			c0-0.9,0.3-1.7,1-2.3c0.7-0.6,1.7-0.9,3.3-0.9h3.8v-15.4h-2.3c-1.5,0-2.6-0.3-3.3-0.9c-0.7-0.6-1-1.4-1-2.3c0-0.9,0.3-1.7,1-2.3
			s1.7-0.9,3.3-0.9H501z"/>
		<path d="M543.6,176.5v33.9h7.6c1.5,0,2.6,0.3,3.3,0.9c0.7,0.6,1,1.4,1,2.3c0,0.9-0.3,1.7-1,2.3s-1.7,0.9-3.3,0.9h-21.6
			c-1.5,0-2.6-0.3-3.3-0.9c-0.7-0.6-1-1.4-1-2.3c0-0.9,0.3-1.7,1-2.3c0.7-0.6,1.7-0.9,3.3-0.9h7.6v-27.5h-5.1
			c-1.5,0-2.6-0.3-3.3-0.9c-0.7-0.6-1-1.4-1-2.3c0-0.9,0.3-1.7,1-2.3c0.7-0.6,1.7-0.9,3.3-0.9H543.6z"/>
		<path d="M593.1,176.5v33.9h1.1c1.5,0,2.6,0.3,3.3,0.9c0.7,0.6,1,1.4,1,2.3c0,0.9-0.3,1.7-1,2.3s-1.7,0.9-3.3,0.9h-7.4v-1.6
			c-1.4,0.8-3,1.5-4.5,1.9c-1.6,0.4-3.2,0.7-4.9,0.7c-4.8,0-8.6-1.4-11.5-4.1s-4.4-6.2-4.4-10.3c0-4.3,1.5-8,4.6-11
			s6.8-4.6,11.2-4.6c1.7,0,3.3,0.3,4.9,0.8c1.6,0.5,3.2,1.3,4.7,2.3v-7.9h-1.1c-1.5,0-2.6-0.3-3.3-0.9c-0.7-0.6-1-1.3-1-2.3
			c0-1,0.3-1.7,1-2.3c0.7-0.6,1.7-0.9,3.3-0.9H593.1z M586.7,203.5c0-2.6-0.9-4.8-2.8-6.7c-1.8-1.8-4.1-2.7-6.8-2.7
			c-2.6,0-4.9,0.9-6.7,2.7c-1.8,1.8-2.8,4-2.8,6.6c0,2.3,0.8,4.3,2.5,5.8c1.7,1.5,4,2.2,7,2.2c3,0,5.3-0.7,7-2.2
			S586.7,205.8,586.7,203.5z"/>
	</g>
	<g>
		<path class="st5" d="M414.3,230.4l-0.2,0c0.1,0.2,0.1,0.5,0.2,0.7c0,0.3,0,0.5,0,0.7c-0.1,0.5-0.2,0.8-0.5,1.1
			c-0.3,0.3-0.6,0.4-0.9,0.3c-0.4,0-0.7-0.3-0.9-0.7c-0.3-0.4-0.3-0.9-0.3-1.6c0-0.3,0.1-0.5,0.2-0.9l-0.2,0c-0.1,0-0.2,0-0.3,0.1
			c-0.1,0.1-0.2,0.3-0.2,0.6c0,0.3,0,0.6,0,1c0,0.2,0,0.3,0,0.4c0,0.1-0.1,0.2-0.2,0.3c-0.1,0.1-0.2,0.1-0.3,0.1
			c-0.1,0-0.1,0-0.2-0.1c0,0-0.1-0.1-0.1-0.1c0-0.1-0.1-0.2-0.1-0.3c0-0.2-0.1-0.4-0.1-0.7c0-0.2,0-0.4,0-0.6
			c0.1-0.5,0.2-0.9,0.5-1.2c0.3-0.3,0.6-0.4,1-0.3l1.7,0.2l0-0.1c0-0.2,0.1-0.3,0.2-0.4c0.1-0.1,0.2-0.1,0.3-0.1
			c0.1,0,0.2,0.1,0.3,0.2s0.1,0.2,0.1,0.5L414.3,230.4z M412.8,230.2c-0.1,0.3-0.2,0.6-0.2,0.9c0,0.3,0,0.7,0.1,0.9
			c0.1,0.2,0.2,0.3,0.3,0.3c0.1,0,0.1,0,0.2-0.1c0.1-0.1,0.2-0.3,0.2-0.5c0-0.2,0-0.4,0-0.7c0-0.3-0.1-0.5-0.2-0.7L412.8,230.2z"/>
		<path class="st5" d="M412.2,224.8c-0.1,0.1-0.2,0.3-0.2,0.4c-0.1,0.1-0.1,0.3-0.1,0.5c0,0.3,0,0.6,0.1,0.8c0,0.1,0.1,0.1,0.1,0.1
			c0.1,0,0.1,0,0.2-0.2c0.1-0.1,0.1-0.3,0.2-0.6c0.1-0.6,0.3-0.9,0.4-1.1c0.1-0.3,0.3-0.5,0.5-0.6c0.2-0.1,0.4-0.2,0.7-0.2
			c0.3,0,0.5,0.2,0.7,0.5c0.2,0.4,0.3,0.9,0.3,1.5c0,0.2-0.1,0.5-0.2,0.7c-0.1,0.2-0.2,0.4-0.3,0.5c0,0,0.1,0.1,0.1,0.1
			c0,0,0,0.1,0,0.1c0,0.1-0.1,0.2-0.2,0.3c-0.1,0.1-0.2,0.1-0.5,0.1l-0.3,0c-0.2,0-0.3-0.1-0.4-0.2s-0.1-0.2-0.1-0.3
			c0-0.1,0.1-0.2,0.1-0.2c0.1-0.1,0.2-0.1,0.3-0.1c0.1-0.1,0.2-0.3,0.3-0.4c0.1-0.2,0.1-0.4,0.2-0.6c0-0.4,0-0.7-0.1-0.9
			c0-0.1-0.1-0.2-0.2-0.2c-0.1,0-0.2,0-0.3,0.2c-0.1,0.1-0.2,0.4-0.3,0.9c-0.2,0.7-0.4,1.1-0.6,1.3c-0.2,0.2-0.5,0.3-0.8,0.2
			c-0.3,0-0.5-0.2-0.7-0.5c-0.2-0.4-0.3-0.9-0.2-1.4c0-0.2,0.1-0.4,0.1-0.6c0.1-0.2,0.1-0.3,0.2-0.5c0-0.1-0.1-0.1-0.1-0.2
			c0,0,0-0.1,0-0.1c0-0.1,0.1-0.2,0.2-0.3c0.1-0.1,0.2-0.1,0.5-0.1l0.2,0c0.2,0,0.3,0.1,0.4,0.1c0.1,0.1,0.2,0.2,0.1,0.4
			c0,0.1-0.1,0.2-0.1,0.3C412.4,224.8,412.3,224.8,412.2,224.8z"/>
		<path class="st5" d="M412.5,220.8l1.7,0.2c0.2,0,0.3,0,0.4-0.1c0.1-0.1,0.2-0.3,0.2-0.6c0.1-0.4,0-0.8-0.1-1.2
			c-0.1-0.1-0.1-0.3-0.1-0.3c0-0.1,0.1-0.2,0.2-0.3c0.1-0.1,0.2-0.1,0.3-0.1c0.1,0,0.2,0.1,0.3,0.2c0.1,0.2,0.2,0.4,0.3,0.8
			s0.1,0.8,0,1c-0.1,0.5-0.2,0.9-0.5,1.1c-0.3,0.2-0.6,0.3-0.9,0.3l-1.9-0.2l0,0.3c0,0.2-0.1,0.3-0.2,0.4c-0.1,0.1-0.2,0.1-0.3,0.1
			c-0.1,0-0.2-0.1-0.3-0.2s-0.1-0.2-0.1-0.5l0-0.3l-0.8-0.1c-0.2,0-0.3-0.1-0.4-0.2c-0.1-0.1-0.1-0.2-0.1-0.3c0-0.1,0.1-0.2,0.2-0.3
			c0.1-0.1,0.2-0.1,0.5-0.1l0.8,0.1l0.2-1.6c0-0.2,0.1-0.3,0.2-0.4c0.1-0.1,0.2-0.1,0.3-0.1c0.1,0,0.2,0.1,0.3,0.2
			c0.1,0.1,0.1,0.2,0.1,0.5L412.5,220.8z"/>
		<path class="st5" d="M414.9,213.6l-0.4,3.5c0.2-0.1,0.4-0.2,0.6-0.4c0.2-0.2,0.3-0.5,0.3-0.9c0-0.3,0-0.7,0-1.3c0-0.2,0-0.4,0-0.5
			c0-0.1,0.1-0.2,0.2-0.3c0.1-0.1,0.2-0.1,0.3-0.1c0.1,0,0.2,0.1,0.3,0.2c0.1,0.1,0.2,0.4,0.2,0.8c0,0.4,0,0.9,0,1.3
			c-0.1,0.7-0.3,1.2-0.8,1.6c-0.4,0.4-0.9,0.5-1.5,0.4c-0.6-0.1-1.1-0.4-1.4-0.8c-0.3-0.5-0.4-1-0.4-1.6c0-0.3,0.1-0.7,0.3-0.9
			c0.2-0.3,0.3-0.5,0.5-0.6c0.2-0.2,0.5-0.3,0.8-0.4c0.2-0.1,0.5-0.1,0.7,0L414.9,213.6z M414,214.4c-0.3,0.1-0.5,0.2-0.6,0.4
			c-0.1,0.2-0.2,0.4-0.3,0.7c0,0.3,0,0.5,0.1,0.8c0.1,0.2,0.3,0.4,0.5,0.6L414,214.4z"/>
		<path class="st5" d="M411.6,208.2l4.5,0.6l0-0.1c0-0.2,0.1-0.3,0.2-0.4c0.1-0.1,0.2-0.1,0.3-0.1c0.1,0,0.2,0.1,0.3,0.2
			c0.1,0.1,0.1,0.2,0.1,0.5l-0.1,1l-0.2,0c0.1,0.2,0.1,0.4,0.2,0.6c0,0.2,0,0.4,0,0.7c-0.1,0.6-0.3,1.1-0.7,1.5
			c-0.4,0.3-0.9,0.5-1.4,0.4c-0.6-0.1-1-0.3-1.4-0.8c-0.4-0.5-0.5-1-0.4-1.6c0-0.2,0.1-0.4,0.2-0.6c0.1-0.2,0.2-0.4,0.4-0.6
			l-1.1-0.1l0,0.1c0,0.2-0.1,0.3-0.2,0.4c-0.1,0.1-0.2,0.1-0.3,0.1c-0.1,0-0.2-0.1-0.3-0.2c-0.1-0.1-0.1-0.2-0.1-0.5L411.6,208.2z
			 M415.1,209.5c-0.4,0-0.7,0-0.9,0.3c-0.3,0.2-0.4,0.5-0.5,0.9c0,0.4,0,0.7,0.3,0.9c0.2,0.3,0.5,0.4,0.8,0.5c0.3,0,0.6,0,0.8-0.2
			c0.2-0.2,0.4-0.5,0.4-0.9c0.1-0.4,0-0.7-0.2-1C415.7,209.7,415.4,209.5,415.1,209.5z"/>
		<path class="st5" d="M418,201.1l-3.1,1.1c0,0.1-0.1,0.2-0.2,0.3c-0.1,0.1-0.2,0.1-0.3,0.1c-0.1,0-0.2-0.1-0.3-0.2
			c-0.1-0.1-0.1-0.2-0.1-0.5l0.1-0.8c0-0.2,0.1-0.3,0.2-0.4c0.1-0.1,0.2-0.1,0.3-0.1c0.1,0,0.2,0.1,0.3,0.2c0.1,0.1,0.1,0.2,0.1,0.4
			l2.1-0.8l-1.8-1.2c0,0.2-0.1,0.3-0.2,0.4c-0.1,0.1-0.2,0.1-0.3,0.1c-0.1,0-0.2-0.1-0.3-0.2s-0.1-0.2-0.1-0.5l0.1-0.8
			c0-0.2,0.1-0.3,0.2-0.4c0.1-0.1,0.2-0.1,0.3-0.1c0.1,0,0.2,0.1,0.3,0.1c0.1,0.1,0.1,0.2,0.1,0.3l3.6,2.4c0-0.2,0.1-0.3,0.1-0.4
			c0.1-0.1,0.2-0.2,0.4-0.2c0.1,0,0.2,0.1,0.3,0.2c0.1,0.1,0.1,0.2,0.1,0.5l-0.2,1.8c0,0.2-0.1,0.3-0.2,0.4
			c-0.1,0.1-0.2,0.1-0.3,0.1c-0.1,0-0.2-0.1-0.3-0.2c-0.1-0.1-0.1-0.2-0.1-0.5l0.1-0.8L418,201.1z"/>
		<path class="st5" d="M417.2,193.1c0.3,0,0.6,0.2,0.9,0.4c0.3,0.2,0.5,0.5,0.6,0.9c0.1,0.4,0.2,0.8,0.1,1.2c0,0.4-0.2,0.7-0.4,1.1
			c-0.2,0.3-0.5,0.6-0.8,0.7c-0.3,0.1-0.7,0.2-1,0.2c-0.3,0-0.7-0.2-1-0.4c-0.3-0.2-0.5-0.5-0.7-0.9c-0.1-0.4-0.2-0.8-0.1-1.1
			c0-0.4,0.2-0.7,0.4-1.1c0.2-0.3,0.5-0.6,0.9-0.7C416.5,193.1,416.8,193.1,417.2,193.1z M417.1,194c-0.3,0-0.5,0-0.8,0.2
			c-0.3,0.2-0.5,0.6-0.6,1c0,0.4,0,0.7,0.2,1c0.2,0.3,0.5,0.5,0.8,0.5c0.3,0,0.5-0.1,0.8-0.3c0.3-0.2,0.4-0.5,0.5-0.9
			c0-0.4,0-0.7-0.2-1C417.6,194.2,417.3,194,417.1,194z"/>
		<path class="st5" d="M415.8,188.2l2.9,0.4c0-0.2,0.1-0.3,0.2-0.4c0.1-0.1,0.2-0.1,0.3-0.1c0.1,0,0.2,0.1,0.3,0.2s0.1,0.2,0.1,0.5
			l-0.1,0.8l-0.2,0c0.1,0.3,0.1,0.5,0.2,0.7c0,0.2,0,0.4,0,0.6c0,0.3-0.1,0.5-0.3,0.7c-0.1,0.2-0.3,0.3-0.5,0.4
			c-0.2,0.1-0.4,0.1-0.6,0.1l-1.8-0.2l0,0.1c0,0.2-0.1,0.3-0.2,0.4c-0.1,0.1-0.2,0.1-0.3,0.1c-0.1,0-0.2-0.1-0.3-0.2
			s-0.1-0.2-0.1-0.5l0.1-1l2.5,0.3c0.2,0,0.3,0,0.4-0.1c0.1-0.1,0.2-0.2,0.2-0.4c0-0.2,0-0.4,0-0.6c0-0.2-0.1-0.5-0.3-0.8l-1.7-0.2
			l0,0.3c0,0.2-0.1,0.3-0.2,0.4c-0.1,0.1-0.2,0.1-0.3,0.1c-0.1,0-0.2-0.1-0.3-0.2s-0.1-0.2-0.1-0.5L415.8,188.2z"/>
		<path class="st5" d="M416.2,185.1l0.5,0.1c-0.2-0.4-0.3-0.7-0.4-0.9c-0.1-0.2-0.1-0.4-0.1-0.6c0-0.3,0.2-0.5,0.4-0.8
			c0.2-0.2,0.3-0.2,0.5-0.2c0.1,0,0.2,0.1,0.3,0.2c0.1,0.1,0.1,0.2,0.1,0.3c0,0.1-0.1,0.2-0.2,0.3c-0.1,0.1-0.2,0.2-0.2,0.3
			c0,0.1,0,0.3,0.2,0.6s0.3,0.6,0.6,1l1.3,0.2l0.2-1.2c0-0.2,0.1-0.3,0.2-0.4c0.1-0.1,0.2-0.1,0.3-0.1c0.1,0,0.2,0.1,0.3,0.2
			s0.1,0.2,0.1,0.5l-0.3,2.6c0,0.2-0.1,0.3-0.2,0.4c-0.1,0.1-0.2,0.1-0.3,0.1c-0.1,0-0.2-0.1-0.3-0.2c-0.1-0.1-0.1-0.2-0.1-0.5
			l0.1-0.5l-2.1-0.3l0,0.3c0,0.2-0.1,0.3-0.2,0.4c-0.1,0.1-0.2,0.1-0.3,0.1c-0.1,0-0.2-0.1-0.3-0.2c-0.1-0.1-0.1-0.2-0.1-0.5
			L416.2,185.1z"/>
		<path class="st5" d="M417.8,173.5c-0.1-0.1-0.1-0.2-0.1-0.3c0-0.1,0.1-0.2,0.2-0.3c0.1-0.1,0.2-0.1,0.4-0.1l0.5,0.1
			c0.2,0,0.3,0.1,0.4,0.2c0.1,0.1,0.1,0.2,0.1,0.3c0,0.1-0.1,0.2-0.1,0.3c-0.1,0.1-0.2,0.1-0.3,0.1s-0.3,0.1-0.4,0.2
			c-0.2,0.2-0.3,0.5-0.3,0.8c-0.1,0.4,0,0.7,0.2,1c0.2,0.3,0.5,0.4,0.8,0.5c0.3,0,0.6,0,0.8-0.2c0.2-0.2,0.4-0.6,0.4-1.1
			c0-0.4,0-0.6,0-0.9c0-0.1-0.1-0.3-0.2-0.4c-0.1-0.1-0.1-0.2-0.1-0.3c0-0.1,0.1-0.2,0.2-0.3c0.1-0.1,0.2-0.1,0.3-0.1
			c0.2,0,0.3,0.2,0.5,0.5c0.2,0.4,0.3,1,0.2,1.7c-0.1,0.7-0.3,1.2-0.6,1.5c-0.4,0.4-1,0.6-1.6,0.6c-0.6-0.1-1.1-0.3-1.4-0.8
			c-0.3-0.5-0.5-1-0.4-1.7c0-0.2,0.1-0.4,0.1-0.6C417.6,173.8,417.7,173.6,417.8,173.5z"/>
		<path class="st5" d="M420.4,167.7c0.3,0,0.6,0.2,0.9,0.4c0.3,0.2,0.5,0.5,0.6,0.9c0.1,0.4,0.2,0.8,0.1,1.2c0,0.4-0.2,0.7-0.4,1.1
			c-0.2,0.3-0.5,0.6-0.8,0.7c-0.3,0.1-0.7,0.2-1,0.2c-0.3,0-0.7-0.2-1-0.4c-0.3-0.2-0.5-0.5-0.7-0.9c-0.1-0.4-0.2-0.8-0.1-1.1
			c0-0.4,0.2-0.7,0.4-1.1c0.2-0.3,0.5-0.6,0.9-0.7C419.7,167.7,420.1,167.7,420.4,167.7z M420.3,168.6c-0.3,0-0.5,0-0.8,0.2
			c-0.3,0.2-0.5,0.6-0.6,1c0,0.4,0,0.7,0.2,1c0.2,0.3,0.5,0.5,0.8,0.5c0.3,0,0.5-0.1,0.8-0.3c0.3-0.2,0.4-0.5,0.5-0.9
			c0-0.4,0-0.7-0.2-1C420.8,168.8,420.6,168.6,420.3,168.6z"/>
		<path class="st5" d="M418.9,164.2l2.9,0.4l0.1-1c0-0.2,0.1-0.3,0.2-0.4c0.1-0.1,0.2-0.1,0.3-0.1c0.1,0,0.2,0.1,0.3,0.2
			s0.1,0.2,0.1,0.5l-0.4,2.9c0,0.2-0.1,0.3-0.2,0.4c-0.1,0.1-0.2,0.1-0.3,0.1c-0.1,0-0.2-0.1-0.3-0.2c-0.1-0.1-0.1-0.2-0.1-0.5
			l0.1-1l-2.1-0.3l-0.1,0.7c0,0.2-0.1,0.3-0.2,0.4c-0.1,0.1-0.2,0.1-0.3,0.1c-0.1,0-0.2-0.1-0.3-0.2s-0.1-0.2-0.1-0.5L418.9,164.2z
			 M417.2,164.1l0.9,0.1l-0.1,1l-0.9-0.1L417.2,164.1z"/>
		<path class="st5" d="M419.4,160.4l0.3,0c-0.1-0.2-0.2-0.4-0.2-0.5c0-0.2-0.1-0.4,0-0.6c0.1-0.5,0.3-0.9,0.6-1.1
			c0.3-0.2,0.6-0.3,1-0.2l1.6,0.2c0-0.2,0.1-0.3,0.2-0.4c0.1-0.1,0.2-0.1,0.3-0.1c0.1,0,0.2,0.1,0.3,0.2s0.1,0.2,0.1,0.5l-0.1,0.8
			c0,0.2-0.1,0.3-0.2,0.4c-0.1,0.1-0.2,0.1-0.3,0.1c-0.1,0-0.2-0.1-0.3-0.2c-0.1-0.1-0.1-0.2-0.1-0.4l-1.6-0.2c-0.2,0-0.3,0-0.4,0.1
			c-0.1,0.1-0.2,0.3-0.2,0.6c0,0.2,0,0.4,0,0.5c0.1,0.2,0.2,0.4,0.4,0.6l1.6,0.2c0-0.2,0.1-0.4,0.1-0.4c0.1-0.1,0.2-0.2,0.4-0.2
			c0.1,0,0.2,0.1,0.3,0.2s0.1,0.2,0.1,0.5l-0.1,1c0,0.2-0.1,0.3-0.2,0.4c-0.1,0.1-0.2,0.1-0.3,0.1c-0.2,0-0.3-0.1-0.3-0.2
			c0-0.1,0-0.2,0-0.4l-2.1-0.3c0,0.2-0.1,0.3-0.2,0.4c-0.1,0.1-0.2,0.1-0.3,0.1c-0.1,0-0.2-0.1-0.3-0.2c-0.1-0.1-0.1-0.2-0.1-0.5
			L419.4,160.4z"/>
		<path class="st5" d="M421.2,153.6c-0.1,0.1-0.2,0.3-0.2,0.4c-0.1,0.1-0.1,0.3-0.1,0.5c0,0.3,0,0.6,0.1,0.8c0,0.1,0.1,0.1,0.1,0.1
			c0.1,0,0.1,0,0.2-0.2c0.1-0.1,0.1-0.3,0.2-0.6c0.1-0.6,0.3-0.9,0.4-1.1c0.1-0.3,0.3-0.5,0.5-0.6c0.2-0.1,0.4-0.2,0.7-0.2
			c0.3,0,0.5,0.2,0.7,0.5c0.2,0.4,0.3,0.9,0.3,1.5c0,0.2-0.1,0.5-0.2,0.7c-0.1,0.2-0.2,0.4-0.3,0.5c0,0,0.1,0.1,0.1,0.1
			c0,0,0,0.1,0,0.1c0,0.1-0.1,0.2-0.2,0.3s-0.2,0.1-0.5,0.1l-0.3,0c-0.2,0-0.3-0.1-0.4-0.2s-0.1-0.2-0.1-0.3c0-0.1,0.1-0.2,0.1-0.2
			c0.1-0.1,0.2-0.1,0.3-0.1c0.1-0.1,0.2-0.3,0.3-0.4c0.1-0.2,0.1-0.4,0.2-0.6c0-0.4,0-0.7-0.1-0.9c0-0.1-0.1-0.2-0.2-0.2
			c-0.1,0-0.2,0-0.3,0.2c-0.1,0.1-0.2,0.4-0.3,0.9c-0.2,0.7-0.4,1.1-0.6,1.3c-0.2,0.2-0.5,0.3-0.8,0.2c-0.3,0-0.5-0.2-0.7-0.5
			c-0.2-0.4-0.3-0.9-0.2-1.4c0-0.2,0.1-0.4,0.1-0.6c0.1-0.2,0.1-0.3,0.2-0.5c0-0.1-0.1-0.1-0.1-0.2c0,0,0-0.1,0-0.1
			c0-0.1,0.1-0.2,0.2-0.3c0.1-0.1,0.2-0.1,0.5-0.1l0.2,0c0.2,0,0.3,0.1,0.4,0.1c0.1,0.1,0.2,0.2,0.1,0.4c0,0.1-0.1,0.2-0.1,0.3
			C421.4,153.6,421.3,153.6,421.2,153.6z"/>
	</g>
</g>
</svg>
