<svg id="Capa_1" data-name="Capa 1" xmlns="http://www.w3.org/2000/svg" viewBox="0 0 211.76 157.53"><defs><style>.cls-1{fill:#1b1916;}.cls-2{fill:#f1c238;}.cls-3{fill:#1cadd7;}</style></defs><g id="Capa_1_copia" data-name="Capa 1 copia"><path class="cls-1" d="M577.65,365.67l4.71,3.11a2.39,2.39,0,0,1-1.94-.15c-6.48-1.83-13-3.42-19.82-2.91-10.92.81-15.18,5.89-14.33,16.77.07.93.21,1.86.34,3a59.38,59.38,0,0,0-11.91-3.88c-15.06-2.87-24.1,4.32-28.26,16.81l-.61,1.85-3.07-5.58-.95,2.6a73,73,0,0,0-8.1-13.41c-5.37-6.86-13.92-7.75-20.59-2.09-4.43,3.76-7.36,8.63-10.05,13.68-.33.62-.41,1.42-1.21,1.81a42.72,42.72,0,0,0-2.22-6.32l-2,3.62A46.69,46.69,0,0,0,453,382.26a10.8,10.8,0,0,0-1.18-1.83c-1.55-1.71-3.09-1.5-4.07.53a211.12,211.12,0,0,0-13,32.89c-.15.53,0,1.64-.92,1.43-1.18-.26-.42-1.17-.25-1.78a203.76,203.76,0,0,1,13-32.92c.22-.45.43-.91.7-1.5-2.57-.15-4.61.94-6.58,2.16-2.51,1.55-4.31,3.93-6.53,5.8-3.93,3.31-4.82,8.08-6.52,12.46-1.11,2.85-1.85,5.83-2.84,8.73-.19.54.06,1.83-1.11,1.43s-.2-1.28-.05-1.84a151.69,151.69,0,0,1,7.25-20.15,8.51,8.51,0,0,0,.34-5.3c-1.65,1.09-2.4,2.79-4,4.24a46.73,46.73,0,0,0-1.91-13.7c-.15-.49-.3-1-.48-1.46-1.79-4.9-4.22-6.15-9.41-4.82-5.85,1.5-10.37,5.19-14.85,9-.95.8-1.61,2.1-3.33,2.16a78,78,0,0,0,5-10.71c-4.68,3.28-8.26,6.89-12.08,10.33,1.81-3.66,4-7.11,5.71-11.29a53.38,53.38,0,0,1-10.2.83c-1.65,0-2.15-.25-1.8-2.16,1.39-7.6,2.48-15.26,3.81-22.88.3-1.73,0-2.39-2.37-1.54,1.23-1.45,3.05-1.41,3.1-3.15,0-1-.08-1.45-1.21-1.47a55.22,55.22,0,0,0-6.56.33,5.77,5.77,0,0,1-2.84-.18,36.05,36.05,0,0,0,10.11-5.57,4.62,4.62,0,0,0,1.94-3.46c.35-3.78,1-7.53,1.36-11.31.16-1.49.57-2.22,2.27-2.45,3.13-.42,3.12-.59,2.46-3.66a30.09,30.09,0,0,0-4.2-9.79c-1.29-2-2.79-3.92-4.17-5.89-.29-.41-1.08-.79-.35-1.43s1,.17,1.42.5A71.61,71.61,0,0,0,402.84,303a23.3,23.3,0,0,0,7.62,2.58,7.93,7.93,0,0,0,8.65-4.53,23.94,23.94,0,0,0,2.16-10c.13-2.77,0-5.55,0-8.38.63-.17.53.6.72,1a59.5,59.5,0,0,0,9.3,12.6,16.23,16.23,0,0,0,1.29,1.19c6.73,5.66,12.58,4.9,17.45-2.44,4-6.05,5.9-13,7.64-19.91.05-.21.11-.42.27-1,.89,1.87,1.31,3.76,2.45,5,3.17,3.37,4.41,8.05,8,11.11,5.61,4.75,11.36,5.19,17.4,1,3.76-2.6,6.59-6.09,9.26-9.73.47-.64.91-1.3,1.5-2.13.85,2.67,1.23,5.26,2.32,7.63.87,0,.82-1,1.63-1.17.28,1,.57,1.95.95,3.23,3.14-2.72,6.13-5.32,9.13-7.9a309.48,309.48,0,0,1,29.68-22.43c.49-.33,1.11-1.39,1.78-.51s-.51,1.15-1,1.49c-3.32,2.37-6.72,4.65-10,7a323.19,323.19,0,0,0-27.89,22.61c-1,.86-1.3,1.58-.69,2.78.92,1.79,1.38,3.79,3.21,5.08,1.4,1,2.23.91,3.5-.28a314.59,314.59,0,0,1,41.1-32.66,6.49,6.49,0,0,1,.55-.36c.4-.22.73-.87,1.27-.22.68.82-.18,1-.59,1.26-3.23,2.26-6.49,4.47-9.69,6.77A311.8,311.8,0,0,0,510,297.74c-.21.19-.39.41-.75.78a8.24,8.24,0,0,0,5.57-.5c4.73-1.8,8.16-5.28,11.48-8.89,3-3.27,5.5-7,8.43-10.49a82.19,82.19,0,0,0-.24,11.22l3.78-5.06a51.21,51.21,0,0,0,.45,15.21c.52,2.5,2,3.36,4.23,3.59a16.84,16.84,0,0,0,8.29-1.6c5-2.07,9.27-5.19,13.54-8.39.64-.48,1.1-1.35,2.1-1.26v-.05c-2.16,4-4.89,7.72-6.59,12,.95.54,1.43-.38,2.09-.7,2.22-1.08,3.84-3.14,6.26-3.91l-.06,0c-1.24,2.3-2.43,4.62-3.72,6.89-.67,1.18-.67,1.7.91,1.89,2.82.33,5.61.94,8.42,1.32,1.36.18,1.53.56.86,1.77-2.39,4.34-4.7,8.73-7,13.11-.31.6-1.15,1.31-.59,1.89.37.38,1.37.21,2.08.16a73.56,73.56,0,0,0,15.75-3.16c.35-.1.7-.2,1-.32s1-.44,1.28.26-.35.86-.73,1.06a77.62,77.62,0,0,0-9.2,5.89c-.23.18-.45.37-.67.56l-.54.54c.36.32.71.12,1.07,0,4-.35,7.92-1.61,11.95-2.29-2.75,1.86-5.55,3.65-8.24,5.59a38,38,0,0,0-9.14,9,15.84,15.84,0,0,0-3.11,7.83c-.27,3.34.62,6.08,3.6,8.1a72,72,0,0,0,8.21,4.83c.46.23,1.26.31.91,1.17s-1,.16-1.45.08a19.26,19.26,0,0,1-2.3-.65,1.27,1.27,0,0,0-1.41,0C577,365.39,577.34,365.53,577.65,365.67ZM439,374.33a10.58,10.58,0,0,1,9.07.63c.75.44,1.15.27,1.53-.47,2.55-5,6-9.54,6.26-15.44a15.47,15.47,0,0,1,.24-3.45c1.12-3.88,1.51-7.89,2.38-11.81a4,4,0,0,0-.14-2.93,4.8,4.8,0,0,0-1.64,2.4c-1,2.32-2,4.67-3.21,6.92-2.23,4.25-5.33,7.87-8.32,11.6s-4.67,8-6.57,12.24l-.12.5ZM572.88,362.2a.69.69,0,0,0,.89,0l-.53-.49c-2.42-2-5.12-3.7-6.8-6.59-2.39-4.09-3-8.14-1.05-12.56,2-4.59,5.3-8.08,9.06-11.19,1.94-1.61,4-3.08,6.26-4.83a4.58,4.58,0,0,0-1.16-.11A51.78,51.78,0,0,1,567.41,328c-.95,0-1.23.61-1.53,1.29A95.32,95.32,0,0,0,560,345.42c-.35,1.43-.74,1.53-1.93,1.42-1.89-.18-3.79-.18-5.69-.25-4.85-.18-4.81-.17-3.4-4.84,1.73-5.7,3.44-11.41,5-17.15.55-2,1.5-3.86,1.43-5.93a29.35,29.35,0,0,1,2.68-12.53c1.1-2.57,2.31-5.09,3.58-7.86-1.77.16-2.83,1.21-4.06,1.88-4.63,2.55-9.13,5.37-14.81,4.77a8.34,8.34,0,0,1-6.69-4.4,21.84,21.84,0,0,1-3-11.84c0-1.84,0-3.69,0-5.92-.46.5-.6.63-.72.78-3.95,5.36-8.16,10.47-13.9,14.05-2.91,1.82-6,3-9.55,2.22a1.87,1.87,0,0,0-1.89.7c-4.4,4.27-8.71,8.63-12.87,13.14a2.64,2.64,0,0,0-.89,1.9c0,6.65.13,13.29.7,19.92,0,.39-.09.94.59.95.12-.08.31-.15.33-.25,1.08-6.2,2.3-12.38,3.15-18.6.49-3.59.74-4.23,4.18-4.88,2.87-.54,5.75-1,8.59-1.67,1.69-.38,2.31-.35,1.75,1.76-1.72,6.52-3.21,13.1-4.8,19.71,1.12,0,1.09-.81,1.32-1.35a51.5,51.5,0,0,1,8.78-13.5,24.8,24.8,0,0,1,9.88-7.06c7.41-2.77,14-.07,17.05,6.9a2.26,2.26,0,0,1-.54,2.86c-1.91,2.09-4,4-5.73,6.27-.68.86-1.9,3.07-3.49.57-.12-.2-.51-.23-.78-.33-3-1.06-6.15.2-8.82,3.58A37.76,37.76,0,0,0,518.59,345a15.8,15.8,0,0,0-.41,5.43c.2,1.94,2.34,4.61,3.85,4.86,3.4.56,8.11-2.33,9.48-5.63.7-1.69-.15-2-1.4-1.79a47.75,47.75,0,0,0-5.55,1.22c-1.18.32-1.44,0-1.19-1.11.71-3.2,1.42-6.41,2-9.63.21-1.11.91-1.29,1.82-1.48q8.35-1.75,16.68-3.6c2.76-.61,2.86-.57,2.55,2.3a44.21,44.21,0,0,1-11.5,25,23.77,23.77,0,0,1-11.25,7.22c-8.25,2.41-14.5-.75-17.37-8.78-.77-2.16-1.07-4.43-1.76-6.67-1.11,3.17-1.27,6.47-1.7,9.71-.13,1-.31,1.49-1.4,1.76a41,41,0,0,0-6.19,2c-4.24,1.76-5.17,1.24-6.71-3.14a30,30,0,0,1-1.16-3c-.6-2.42-1.6-4.74-2.44-7.11a65.85,65.85,0,0,0-2,11.87,2.91,2.91,0,0,1-2.3,2.86c-3,1.12-6.33,1.36-9.2,3-1,.54-2.2-.59-1.89-1.9,1-4.31,1.49-8.71,2.34-13s1.56-8.57,2.42-12.83c.36-1.8.94-3.59.62-5.54-1.85,2.64-4.51,4.69-4.92,8.24-.46,4-1.21,7.94-1.81,11.91-.31,2,.05,4.49-1,5.92s-3.8,1.66-5.85,1.94c-4.69.65-7.66,3.05-9.43,7.45-1,2.43-2.23,4.31.4,6.62,1.77,1.55,2.68,4,3.58,6.22.69,1.73,1.34,3.48,2.11,5.5a62.51,62.51,0,0,1,6.72-10.43c2.25-2.67,4.65-5.22,7.93-6.59,5.62-2.34,10.71-1,15.37,2.57,5.14,3.94,8.76,9.14,12,14.67.41.7.63,1.59,1.46,2.08a9.87,9.87,0,0,1,1-1.32c.2-.2.07-.38.12-.54a23.36,23.36,0,0,1,10.3-12.81c6.26-3.69,12.94-3.06,19.66-1.85,3.06.55,5.92,1.83,9,2.93-.41-4.09-.49-8,1-11.65.25-.62.06-.85-.29-1.28-1.94-2.4-2.12-4.6-.54-7.23a12.08,12.08,0,0,1,10.69-6c3.82-.08,5.87,2,6.12,5.81.06.9.35,1.07,1.15,1.1A74.28,74.28,0,0,1,572.88,362.2ZM418.64,338.89a55.57,55.57,0,0,1,8.81-19c3.61-5,7.75-9.27,13.73-11.46,6.41-2.36,12.65-.18,15.78,5.87a27.92,27.92,0,0,1,2.79,15.06,69.36,69.36,0,0,1-1.23,8.11A3,3,0,0,0,460,334.9c1.14-6.58,2.32-13.15,3.44-19.74.2-1.16.42-2,1.84-2.21,3.75-.58,7.47-1.32,11.2-2,.35-.06.95-.23,1-.1,1.28,2.12,2.21.22,2.81-.42,5.85-6.3,11.76-12.53,18-18.4.59-.55.9-1,.49-1.88a49.11,49.11,0,0,1-2.8-7.7c-.63.78-1.09,1.33-1.53,1.89a38.37,38.37,0,0,1-7.91,7.83c-6.28,4.4-12.58,4.17-18.51-.68a32.64,32.64,0,0,1-7.2-8.75c-.84-1.41-1.62-2.86-2.57-4.55-.86,2.7-1.54,5.08-2.39,7.41-1.83,5-3.91,9.94-7.89,13.73a9.86,9.86,0,0,1-11.07,2.3c-3.21-1.23-5.65-3.5-8-5.9s-4.07-5.15-6.37-8.26c0,1.31,0,2,0,2.73-.24,4.32-.67,8.57-2.92,12.44s-7.75,5.09-10.42,4.3a46.14,46.14,0,0,1-15.37-8.1c-.47-.37-.88-1-1.68-.77a31.81,31.81,0,0,1,5,11c.68,3,.64,3,3.78,2.29,5.27-1.22,10.54-2.47,16-1.26,4.3.95,6.25,3.69,5.88,8.1-.55,6.54-4,11.51-8.56,15.88a3,3,0,0,0-1.18,2.25A7.92,7.92,0,0,1,418.64,338.89Zm75.54,5c-1.41-4.76-1.48-9.59-1.81-14.38-.35-5.17-.4-10.35-.27-15.53,0-1.19-.08-1.74-1.55-1.37-2.75.69-5.56,1.19-8.36,1.67-1.19.21-1.61.73-1.81,2-1.12,6.83-2.4,13.64-3.6,20.47-1.77,10.05-3.5,20.11-5.3,30.16-.27,1.49,0,1.7,1.53,1.45,2.32-.38,4.32-1.66,6.6-2a2.39,2.39,0,0,0,2.22-2.47c.38-3.48.86-6.95,1.38-10.41.33-2.22.81-4.41,1.22-6.62,1.32,4.93,3.36,9.47,4.86,14.19s1.5,4.61,6.19,3.14c2-.64,4.84-.43,5.93-2.17s.77-4.23,1.08-6.4c1.28-8.88,2.86-17.7,4.89-26.44,1.18-5.11,2.41-10.21,3.65-15.3.25-1-.08-1.38-1.07-1.2l-8.83,1.58c-.86.15-1.17.66-1.31,1.49q-2.22,13.15-4.47,26.31C495.24,342.71,495.24,343.47,494.18,343.87Zm-75.66,3.95c0,5.69.81,9.75,2.41,13a10.63,10.63,0,0,0,11,6.36,18,18,0,0,0,11.37-5.53c9.06-8.85,14-19.74,15.26-32.28a26.88,26.88,0,0,0-1.85-12.88c-1.68-4.13-4.32-7.24-9.21-7.58a16.87,16.87,0,0,0-13.25,5.17A50.81,50.81,0,0,0,418.52,347.82Zm-9.69-10.56c1.44-1.28,2.88-2.48,4.22-3.77,4.22-4.06,7.66-8.58,8.51-14.63.61-4.34-1.37-7.12-5.69-7.7a24.1,24.1,0,0,0-7.86.08c-4.72.93-9.38,2.13-14.08,3.12-1.26.26-1.39,1.08-1.5,2-1.89,15.78-4.26,31.49-7,47.15-.31,1.78.27,2.05,1.87,2.08,8.67.21,16.16-2.85,22.68-8.29,4.15-3.46,8.16-7.19,7.64-13.42a4,4,0,0,1,.28-1.5c.68-2-.41-3.22-2-4a10.14,10.14,0,0,0-4.46-.92C410.59,337.44,409.7,337.88,408.83,337.26Zm126.05,8.45a18.38,18.38,0,0,1-5,8.17c-2.67,2.56-6.13,3.26-9.05,1.93s-4.29-4-3.83-7.88a33.69,33.69,0,0,1,9.28-20.05,7.71,7.71,0,0,1,9.54-1.78,1.2,1.2,0,0,0,1.68-.26c1.93-2.08,3.84-4.17,5.8-6.23a1.47,1.47,0,0,0,.33-1.79c-1.75-3.69-4.24-6.45-8.61-6.86a16.76,16.76,0,0,0-13.82,5.34c-11.27,11.39-16.95,24.9-14,41,.95,5.26,4.71,9.93,11.2,9.88a19.35,19.35,0,0,0,13-4.94c7.93-7,12.25-15.94,13.93-26.28.24-1.46-.41-1.61-1.59-1.36-4.34.94-8.68,1.89-13,2.75-3.84.76-3.84.7-4.61,4.67-.26,1.36-.52,2.73-.9,4.05s0,1.41,1.23,1.16C529.11,346.75,531.79,345.71,534.88,345.71Zm-78.83,19.56c3.07-.84,5.94-1.68,8.83-2.4a1.86,1.86,0,0,0,1.68-1.85,369,369,0,0,1,9.13-46.7c.4-1.53.24-2-1.43-1.65-2.49.53-5,.95-7.54,1.31a2.21,2.21,0,0,0-2.14,2.2c-1.56,9.19-3.24,18.36-4.85,27.54C458.48,350.81,457.3,357.91,456.05,365.27Zm98.14-19.85a7.86,7.86,0,0,1,1.75,0c2,.49,2.84-.56,3.36-2.34.67-2.3,1.48-4.57,2.32-6.82a158.41,158.41,0,0,1,11.27-23.36c1-1.68.46-2.05-1.16-2.28q-5.19-.74-10.36-1.69c-1-.19-1.58-.1-1.9,1.06-2.9,10.3-5.91,20.57-8.79,30.87C549.46,345.21,549.56,345.23,554.19,345.42Zm-82.64-6.48c2.41-3.17,5.07-6,5.46-10.34s1.47-8.63,2.15-13a2.68,2.68,0,0,1,2.42-2.56c3.58-.67,7.15-1.43,10.72-2.15.41-.08,1.06-.39,1.16.11.28,1.45.75.78,1.29.22,3.65-3.72,7.29-7.45,11-11.14.67-.67.8-1-.12-1.6a13,13,0,0,1-4.69-4.72c-.79-1.47-1.39-1.16-2.38-.21-6.33,6.08-12.46,12.37-18.26,19-1.55,1.77-3.59,3.23-4.26,5.7C474.18,325.08,472.82,332,471.55,338.94Zm75.83,27.85a11.49,11.49,0,0,0,9-5.09c2.3-3.26.8-6.52-3.17-6.95-4.33-.47-7.6,1.46-10.08,4.86-1.07,1.47-1.7,3.17-.84,4.92S545,366.76,547.38,366.79Zm-106.18-1.7c-5.56,3.37-11,4.83-17.14,1.59,2.9,5.25,3.83,10.6,4.32,15.9C434.29,378.14,438.84,372.66,441.2,365.09Zm-23.81-13.86a39.42,39.42,0,0,1-18.77,14,2.33,2.33,0,0,0-1.52,1.4c-.58,1.38-1.25,2.72-2.09,4.53,3.56-3,6.71-5.69,10.4-7.65,4.65-2.47,9.38-3.93,14.82-1.09C418.71,358.78,417.17,355.53,417.39,351.23Zm-28.45-19.66c-1.23.72-2.29,1.24-3.23,1.92-.65.46-.29.72.34,1C388,335.17,388.37,334.85,388.94,331.57Z" transform="translate(-377.8 -257.78)"/><path class="cls-1" d="M566.93,292.35c.09-.16.19-.32.28-.49-.14.11-.43.13-.27.44C567,292.31,566.93,292.35,566.93,292.35Z" transform="translate(-377.8 -257.78)"/><path class="cls-1" d="M568.7,299.71c0-.1,0-.2-.07-.3l.28,0-.27.23Z" transform="translate(-377.8 -257.78)"/><path class="cls-2" d="M572.88,362.2a75.27,75.27,0,0,0-13.19-2c-.8,0-1.09-.2-1.15-1.1-.24-3.84-2.3-5.89-6.12-5.81a12.08,12.08,0,0,0-10.69,6c-1.59,2.63-1.4,4.83.54,7.23.35.43.54.66.29,1.28-1.48,3.69-1.4,7.55-1,11.65-3.09-1.1-6-2.38-9-2.93-6.72-1.21-13.4-1.83-19.66,1.85a23.32,23.32,0,0,0-10.3,12.81c-.06.16.08.34-.12.54a10.84,10.84,0,0,0-1,1.32c-.83-.49-1.05-1.38-1.46-2.08-3.21-5.53-6.82-10.73-12-14.67-4.66-3.57-9.75-4.92-15.37-2.57-3.28,1.37-5.68,3.92-7.93,6.59a64.23,64.23,0,0,0-6.72,10.43c-.77-2-1.42-3.77-2.11-5.5-.9-2.25-1.81-4.66-3.58-6.22-2.62-2.31-1.38-4.18-.4-6.62a11,11,0,0,1,9.43-7.45c2-.28,4.7-.4,5.85-1.94s.71-3.91,1-5.92c.6-4,1.35-7.92,1.81-11.91.41-3.56,3.07-5.61,4.92-8.24.32,1.95-.26,3.74-.62,5.54-.86,4.27-1.59,8.57-2.42,12.83s-1.34,8.71-2.34,13c-.3,1.31.92,2.44,1.89,1.9,2.87-1.61,6.17-1.85,9.2-3a2.91,2.91,0,0,0,2.3-2.86,65,65,0,0,1,2-11.87c.84,2.36,1.84,4.68,2.44,7.11.27,1.08.81,2,1.16,3,1.54,4.38,2.47,4.9,6.71,3.14a43.37,43.37,0,0,1,6.19-2c1.09-.26,1.26-.76,1.4-1.76.44-3.24.59-6.55,1.7-9.71.7,2.23,1,4.51,1.76,6.67,2.87,8,9.12,11.19,17.37,8.78A23.8,23.8,0,0,0,535,360.57a44.21,44.21,0,0,0,11.5-25c.31-2.87.21-2.91-2.55-2.3q-8.34,1.83-16.68,3.6c-.91.19-1.61.37-1.82,1.48-.62,3.22-1.34,6.43-2.05,9.63-.25,1.12,0,1.43,1.19,1.11a50.41,50.41,0,0,1,5.55-1.22c1.25-.19,2.11.1,1.4,1.79-1.37,3.3-6.08,6.19-9.48,5.63-1.51-.25-3.65-2.92-3.85-4.86a15.55,15.55,0,0,1,.41-5.43,37.76,37.76,0,0,1,6.88-14.53c2.67-3.38,5.81-4.64,8.82-3.58.27.09.65.13.78.33,1.59,2.5,2.81.29,3.49-.57,1.77-2.24,3.82-4.18,5.73-6.27a2.27,2.27,0,0,0,.54-2.86c-3.1-7-9.64-9.67-17.05-6.9a24.94,24.94,0,0,0-9.88,7.06,51.92,51.92,0,0,0-8.78,13.5c-.24.54-.21,1.38-1.32,1.35,1.59-6.6,3.08-13.19,4.8-19.71.56-2.1-.07-2.13-1.75-1.76-2.85.63-5.73,1.12-8.59,1.67-3.44.65-3.69,1.29-4.18,4.88-.85,6.23-2.07,12.41-3.15,18.6,0,.1-.21.16-.33.25-.68,0-.56-.55-.59-.95-.57-6.63-.71-13.27-.7-19.92a2.64,2.64,0,0,1,.89-1.9c4.16-4.51,8.47-8.87,12.87-13.14a1.86,1.86,0,0,1,1.89-.7c3.52.79,6.63-.4,9.55-2.22,5.74-3.59,10-8.7,13.9-14,.11-.15.26-.28.72-.78,0,2.24,0,4.08,0,5.92a21.78,21.78,0,0,0,3,11.84,8.36,8.36,0,0,0,6.69,4.4c5.68.6,10.18-2.22,14.81-4.77,1.23-.67,2.29-1.72,4.06-1.88-1.26,2.77-2.48,5.29-3.58,7.86a29.21,29.21,0,0,0-2.68,12.53c.06,2.07-.89,4-1.43,5.93-1.6,5.74-3.32,11.45-5,17.15-1.41,4.67-1.45,4.66,3.4,4.84,1.9.07,3.8.07,5.69.25,1.19.11,1.58,0,1.93-1.42a94.47,94.47,0,0,1,5.93-16.15c.3-.68.58-1.3,1.53-1.29a52.38,52.38,0,0,0,12.14-1.54,5.17,5.17,0,0,1,1.16.11c-2.28,1.75-4.32,3.22-6.26,4.83-3.76,3.12-7.07,6.6-9.06,11.19-1.92,4.42-1.33,8.46,1.05,12.56,1.68,2.89,4.38,4.55,6.8,6.59C573.12,361.88,573,362,572.88,362.2Z" transform="translate(-377.8 -257.78)"/><path class="cls-2" d="M418.64,338.89a8,8,0,0,0-5.56-2.54,3,3,0,0,1,1.18-2.25c4.57-4.37,8-9.34,8.56-15.88.37-4.4-1.58-7.14-5.88-8.1-5.46-1.21-10.73,0-16,1.26-3.14.73-3.09.75-3.78-2.29a31.81,31.81,0,0,0-5-11c.8-.27,1.22.4,1.68.77a46,46,0,0,0,15.37,8.1c2.67.79,8.1-.31,10.42-4.3s2.68-8.12,2.92-12.44c0-.71,0-1.42,0-2.73,2.29,3.1,4.05,5.9,6.37,8.26s4.8,4.67,8,5.9a9.86,9.86,0,0,0,11.07-2.3c4-3.79,6-8.7,7.89-13.73.85-2.32,1.53-4.71,2.39-7.41.95,1.7,1.73,3.15,2.57,4.55a32.61,32.61,0,0,0,7.2,8.75c5.93,4.84,12.23,5.08,18.51.68a38.37,38.37,0,0,0,7.91-7.83c.44-.56.9-1.11,1.53-1.89a50.13,50.13,0,0,0,2.8,7.7c.41.84.1,1.33-.49,1.88-6.27,5.88-12.18,12.11-18,18.4-.59.64-1.53,2.54-2.81.42-.08-.13-.68,0-1,.1-3.73.67-7.46,1.41-11.2,2-1.42.22-1.64,1.05-1.84,2.21-1.12,6.58-2.3,13.16-3.44,19.74a3,3,0,0,1-1.48,2.54,67.3,67.3,0,0,0,1.23-8.11A27.85,27.85,0,0,0,457,314.26c-3.13-6-9.38-8.22-15.78-5.87-6,2.2-10.12,6.5-13.73,11.46A55.89,55.89,0,0,0,418.64,338.89Z" transform="translate(-377.8 -257.78)"/><path class="cls-3" d="M494.18,343.87c1.06-.4,1.06-1.16,1.19-1.88,1.49-8.77,3-17.54,4.47-26.31.14-.83.46-1.34,1.31-1.49l8.83-1.58c1-.18,1.33.17,1.07,1.2q-1.86,7.63-3.65,15.3c-2,8.74-3.61,17.56-4.89,26.44-.31,2.17,0,4.71-1.08,6.4s-3.89,1.53-5.93,2.17c-4.69,1.47-4.72,1.44-6.19-3.14s-3.54-9.26-4.86-14.19c-.41,2.21-.89,4.4-1.22,6.62-.52,3.46-1,6.93-1.38,10.41a2.4,2.4,0,0,1-2.22,2.47c-2.29.35-4.29,1.63-6.6,2-1.52.25-1.8,0-1.53-1.45,1.8-10.05,3.53-20.11,5.3-30.16,1.2-6.82,2.47-13.63,3.6-20.47.2-1.23.62-1.75,1.81-2,2.8-.48,5.61-1,8.36-1.67,1.47-.37,1.58.18,1.55,1.37-.14,5.18-.08,10.36.27,15.53C492.7,334.28,492.77,339.1,494.18,343.87Z" transform="translate(-377.8 -257.78)"/><path class="cls-3" d="M418.52,347.82a50.83,50.83,0,0,1,15.69-33.71,16.82,16.82,0,0,1,13.25-5.17c4.89.35,7.53,3.46,9.21,7.58a26.88,26.88,0,0,1,1.85,12.88c-1.27,12.55-6.2,23.43-15.26,32.28a18,18,0,0,1-11.37,5.53,10.62,10.62,0,0,1-11-6.36C419.34,357.56,418.49,353.5,418.52,347.82Zm30.57-11.44a37.92,37.92,0,0,0-.22-4.19c-.41-2.47-.91-5.12-3.65-6s-5,.44-6.87,2.33a20.19,20.19,0,0,0-1.46,1.61,37.93,37.93,0,0,0-6.14,11,23.11,23.11,0,0,0-1.29,6.4c-.23,3.79,1,6.75,3.79,7.93a7.83,7.83,0,0,0,8.73-1.62C447.21,349.1,448.82,342.87,449.09,336.38Z" transform="translate(-377.8 -257.78)"/><path class="cls-3" d="M408.83,337.26c.87.62,1.76.18,2.59.2a10.25,10.25,0,0,1,4.46.92c1.61.82,2.7,2,2,4a4,4,0,0,0-.28,1.5c.52,6.22-3.49,10-7.64,13.42-6.52,5.44-14,8.5-22.68,8.29-1.6,0-2.18-.31-1.87-2.08,2.72-15.66,5.1-31.37,7-47.15.11-.95.24-1.77,1.5-2,4.71-1,9.37-2.19,14.08-3.12a24.1,24.1,0,0,1,7.86-.08c4.32.58,6.3,3.36,5.69,7.7-.84,6-4.28,10.57-8.51,14.63C411.71,334.78,410.27,336,408.83,337.26Zm-10.76,14.43c-.3,1.48.37,1.69,1.56,1.2,1.88-.77,3.79-1.49,5.63-2.36a8.54,8.54,0,0,0,3.8-3.19c1.38-2.28.51-4.08-2.11-4.18a25.27,25.27,0,0,0-6.69.91,1.43,1.43,0,0,0-1.17,1.37C398.76,347.53,398.41,349.61,398.07,351.69Zm2.9-15.8a20.74,20.74,0,0,0,9.24-8.79,2.26,2.26,0,0,0,0-2.68,3.42,3.42,0,0,0-3.68-.63c-1.27.4-3-.09-3.4,2C402.52,329.06,401.75,332.29,401,335.89Z" transform="translate(-377.8 -257.78)"/><path class="cls-3" d="M534.88,345.71c-3.09,0-5.77,1-8.53,1.58-1.26.25-1.6.17-1.23-1.16s.64-2.7.9-4.05c.76-4,.76-3.91,4.61-4.67,4.36-.86,8.7-1.81,13-2.75,1.18-.26,1.83-.1,1.59,1.36-1.68,10.34-6,19.3-13.93,26.28a19.35,19.35,0,0,1-13,4.94c-6.49.05-10.25-4.62-11.2-9.88-2.92-16.14,2.76-29.66,14-41A16.7,16.7,0,0,1,535,311c4.37.4,6.86,3.17,8.61,6.86a1.47,1.47,0,0,1-.33,1.79c-2,2.06-3.87,4.15-5.8,6.23a1.2,1.2,0,0,1-1.68.26,7.71,7.71,0,0,0-9.54,1.78A33.69,33.69,0,0,0,517,348c-.46,3.92,1,6.61,3.83,7.88s6.38.63,9.05-1.93A18.63,18.63,0,0,0,534.88,345.71Z" transform="translate(-377.8 -257.78)"/><path class="cls-3" d="M456.05,365.27c1.25-7.35,2.43-14.46,3.67-21.55,1.61-9.18,3.29-18.35,4.85-27.54.24-1.4.78-2,2.14-2.2,2.52-.36,5-.79,7.54-1.31,1.67-.35,1.83.12,1.43,1.65a369,369,0,0,0-9.13,46.7,1.87,1.87,0,0,1-1.68,1.85C462,363.59,459.12,364.42,456.05,365.27Z" transform="translate(-377.8 -257.78)"/><path class="cls-3" d="M554.19,345.42c-4.63-.19-4.73-.22-3.52-4.53,2.88-10.3,5.89-20.57,8.79-30.87.33-1.16.86-1.25,1.9-1.06q5.16.94,10.36,1.69c1.62.23,2.11.6,1.16,2.28a160.44,160.44,0,0,0-11.27,23.36c-.83,2.25-1.65,4.51-2.32,6.82-.52,1.78-1.32,2.83-3.36,2.34A7.19,7.19,0,0,0,554.19,345.42Z" transform="translate(-377.8 -257.78)"/><path class="cls-2" d="M471.55,338.94c1.27-6.94,2.63-13.86,4.46-20.68.66-2.47,2.7-3.94,4.26-5.7,5.8-6.59,11.93-12.87,18.26-19,1-1,1.59-1.26,2.38.21a12.94,12.94,0,0,0,4.69,4.72c.92.58.79.92.12,1.6-3.68,3.69-7.32,7.42-11,11.14-.55.56-1,1.23-1.29-.22-.1-.5-.75-.19-1.16-.11-3.57.72-7.14,1.48-10.72,2.15a2.69,2.69,0,0,0-2.42,2.56c-.68,4.33-1.76,8.61-2.15,13S474,335.77,471.55,338.94Z" transform="translate(-377.8 -257.78)"/><path class="cls-2" d="M438.6,374c1.91-4.24,3.68-8.63,6.57-12.24s6.09-7.36,8.32-11.6c1.18-2.25,2.17-4.6,3.21-6.92a4.66,4.66,0,0,1,1.64-2.4,4,4,0,0,1,.14,2.93c-.87,3.92-1.26,7.93-2.38,11.81a16.08,16.08,0,0,0-.24,3.45c-.27,5.9-3.71,10.48-6.26,15.44-.38.74-.78.91-1.53.47a10.54,10.54,0,0,0-9.07-.63Z" transform="translate(-377.8 -257.78)"/><path class="cls-3" d="M547.38,366.79c-2.39,0-4.22-.37-5.14-2.25s-.23-3.45.84-4.92c2.48-3.4,5.76-5.33,10.08-4.86,4,.43,5.47,3.69,3.17,6.95A11.46,11.46,0,0,1,547.38,366.79Z" transform="translate(-377.8 -257.78)"/><path class="cls-2" d="M441.2,365.09c-2.36,7.57-6.9,13.05-12.81,17.49-.5-5.3-1.43-10.65-4.32-15.9C430.2,369.93,435.64,368.46,441.2,365.09Z" transform="translate(-377.8 -257.78)"/><path class="cls-2" d="M417.39,351.23c-.22,4.3,1.32,7.55,2.84,11.22-5.43-2.84-10.17-1.38-14.82,1.09-3.69,2-6.84,4.64-10.4,7.65.84-1.81,1.51-3.15,2.09-4.53a2.36,2.36,0,0,1,1.52-1.4A39.4,39.4,0,0,0,417.39,351.23Z" transform="translate(-377.8 -257.78)"/><path class="cls-2" d="M388.94,331.57c-.58,3.28-1,3.6-2.9,2.88-.63-.24-1-.5-.34-1C386.66,332.81,387.71,332.29,388.94,331.57Z" transform="translate(-377.8 -257.78)"/><path class="cls-2" d="M573.24,361.72l.53.49a.69.69,0,0,1-.89,0Z" transform="translate(-377.8 -257.78)"/><path class="cls-2" d="M439,374.33l-.51.2c0-.17.08-.33.11-.5Z" transform="translate(-377.8 -257.78)"/><path class="cls-1" d="M449.09,336.38c-.27,6.49-1.88,12.72-7.11,17.44a7.83,7.83,0,0,1-8.73,1.62c-2.79-1.18-4-4.14-3.79-7.93a23.19,23.19,0,0,1,1.29-6.4,37.44,37.44,0,0,1,6.14-11,18.44,18.44,0,0,1,1.46-1.61c1.91-1.89,4.19-3.2,6.87-2.33s3.24,3.54,3.65,6A37.33,37.33,0,0,1,449.09,336.38Zm-1.22-.88c-.1-1.13-.17-2.44-.34-3.74a8.48,8.48,0,0,0-.54-1.89c-1-2.58-3-3.22-5.39-2-3.21,1.57-4.88,4.45-6.57,7.3-2.47,4.17-4.41,8.56-4.34,13.54,0,2.27.72,4.39,2.93,5.5a6.33,6.33,0,0,0,6.63-.64,12.76,12.76,0,0,0,3.49-3.57C446.68,345.66,447.72,340.81,447.87,335.5Z" transform="translate(-377.8 -257.78)"/><path class="cls-1" d="M398.07,351.69c.34-2.08.69-4.17,1-6.25a1.42,1.42,0,0,1,1.17-1.37,25.33,25.33,0,0,1,6.69-.91c2.62.11,3.48,1.9,2.11,4.18a8.49,8.49,0,0,1-3.8,3.19c-1.84.87-3.75,1.59-5.63,2.36C398.44,353.38,397.77,353.17,398.07,351.69Zm3.93-1.11a14.83,14.83,0,0,0,5.28-3,2.35,2.35,0,0,0,.84-2.07c-.15-.72-1.11-1-1.76-1a6.51,6.51,0,0,0-4.23.71c-.76.49,0,1.75-.11,2.66A26.94,26.94,0,0,0,402,350.58Zm-1.4-4.35-.3,0c-.24,1.41-.5,2.81-.72,4.22-.05.33-.26.81.2.93s.81-.29.82-.77C400.62,349.13,400.6,347.68,400.6,346.23Z" transform="translate(-377.8 -257.78)"/><path class="cls-1" d="M401,335.89c.78-3.6,1.55-6.83,2.16-10.09.39-2.09,2.13-1.6,3.4-2a3.43,3.43,0,0,1,3.68.63,2.23,2.23,0,0,1,0,2.68A20.75,20.75,0,0,1,401,335.89Zm1.85-2.64a17,17,0,0,0,6.31-6.86c.19-.37.39-.8,0-1.2-.7-.74-4.58.11-4.82,1.13C403.78,328.49,403.37,330.69,402.82,333.25Z" transform="translate(-377.8 -257.78)"/><path class="cls-2" d="M447.87,335.5c-.15,5.3-1.18,10.16-4.14,14.47a12.76,12.76,0,0,1-3.49,3.57,6.33,6.33,0,0,1-6.63.64c-2.21-1.11-2.89-3.23-2.93-5.5-.08-5,1.87-9.38,4.34-13.54,1.69-2.85,3.36-5.74,6.57-7.3,2.43-1.19,4.44-.54,5.39,2a8.48,8.48,0,0,1,.54,1.89C447.7,333.06,447.77,334.37,447.87,335.5Z" transform="translate(-377.8 -257.78)"/><path class="cls-2" d="M402,350.58a26.94,26.94,0,0,1,0-2.75c.1-.92-.65-2.17.11-2.66a6.38,6.38,0,0,1,4.23-.71c.66.08,1.61.31,1.76,1a2.35,2.35,0,0,1-.84,2.07A14.83,14.83,0,0,1,402,350.58Z" transform="translate(-377.8 -257.78)"/><path class="cls-2" d="M402.82,333.25c.55-2.56,1-4.76,1.5-6.93.25-1,4.12-1.87,4.82-1.13.38.4.17.83,0,1.2A17,17,0,0,1,402.82,333.25Z" transform="translate(-377.8 -257.78)"/></g></svg>